<?xml version="1.0" encoding="utf-8"?>
<!-- Generator: Adobe Illustrator 25.2.1, SVG Export Plug-In . SVG Version: 6.00 Build 0)  -->
<svg version="1.0" xmlns="http://www.w3.org/2000/svg" xmlns:xlink="http://www.w3.org/1999/xlink" x="0px" y="0px" height="28" width="137"
	 viewBox="0 0 580 150" style="enable-background:new 0 0 580 150;" xml:space="preserve">
<style type="text/css">
	.st0{fill:#00D8C1;}
	.st1{fill:#002033;}
	.st2{fill:#FFFFFF;}
	.st3{fill:#00DACC;}
	.st4{fill:#FAFAFA;}
	.st5{fill:#221F20;}
	.st6{fill:#7F7F7F;}
</style>
<g id="BG">
</g>
<g id="Logo">
	<g>
		<g>
			<path class="st6" d="M204.1,46.4h13.6l15,24.2l15-24.2h13.6v57.3h-12.5V66.2l-16.1,24.5h-0.3l-15.9-24.2v37.1h-12.4V46.4z"/>
			<path class="st6" d="M306.2,46.4h43.2v11.2h-30.7v11.6h27v11.2h-27v12h31.1v11.2h-43.6V46.4z"/>
			<path class="st6" d="M405.4,58H388V46.4h47.4V58H418v45.6h-12.6V58z"/>
			<path class="st6" d="M476.7,46.4h12.6v57.3h-12.6V46.4z"/>
			<path class="st6" d="M530.8,95.3l7.4-8.9c5.2,4.3,10.6,7,17.1,7c5.2,0,8.3-2,8.3-5.4v-0.2c0-3.2-2-4.9-11.5-7.3
				c-11.6-2.9-19-6.2-19-17.5v-0.2c0-10.4,8.3-17.3,20-17.3c8.4,0,15.4,2.6,21.3,7.3l-6.5,9.5c-5.2-3.5-10-5.6-14.9-5.6
				c-4.9,0-7.4,2.1-7.4,5v0.2c0,3.8,2.5,4.9,12.4,7.5c11.6,3.1,18.2,7.2,18.2,17.2v0.2c0,11.4-8.7,17.7-21,17.7
				C546.3,104.4,537.6,101.5,530.8,95.3z"/>
		</g>
		<g>
			<path class="st6" d="M78,2.1C37.1,2.1,3.9,35.3,3.9,76.2c0,29.5,17.2,55,42.2,66.9c0.9-1.5,1.8-2.7,2.6-3.6
				c5.4-5.8,9.8-20.5,9.8-20.5s-5-0.6-10.4-4.9c-5-0.9-7.6-3.6-9.6-9.3c-0.7-1.9-1.5-3.8-2.4-5.6c-0.3-0.5-2.4-0.2-2.3-1.6
				c-0.2,1.8-1.3,0.1-2.3-2.2c-0.7-1.7-1.2-3.2-1.3-4.7c-0.2-2-1-3.2-2.9-4c-3.8-1.6-5.5-4.7-5.9-8.5c-0.1-0.8-0.2-1.7-0.3-2.5
				c-0.3,0-0.5,0-0.8,0.1c0,2.1-1.8-1.1,0.6-4.7c0.6-0.9,0.9-1.9,1.3-2.9c-0.2-0.2-0.5-0.4-0.7-0.5c-1.2,0.6-1.1-0.5,0.3-1.5
				c-1.9-6.4,2.3-10.3,7.1-14.2c-0.9-0.4-1.5-0.6-2.4-1c1.4-0.3,2.3-0.6,3.2-0.8c0.2,0,0.5,0,0.7,0c0.2-1,0.7-2.2,1.9-3.6
				c0.9-1.1,2.2-1.4,3.5-1.3c0.2-1.5,0.7-2.8,2.7-2.8c3.5-0.1,5.3-2.3,7.3-4.5c1.8-2,3.8-3.8,5.8-5.5c1-0.9,2.5-1.3,3.4-2.2
				c4.7-4.6,11-6.4,17.1-7.5c4.1-0.7,8.7,0.6,13,1.4c0.6,0.1,1.2,0.3,1.8,0.5c9.7,0.5,22.1,2.2,25.4,7c5.8,8.2,4.9,9.8,4.9,9.8
				l7.5,12.7c0,0-2.8,6.5-1.6,8.9S129,70,129,70s6.9,5,6.9,5.3s0.3,1.5-1.4,2.9s-4.9,3.1-4.9,3.1s0.1,1.1,0.6,1.9
				c0.4,0.9,1.5,2.1,1.1,3.3c-0.4,1.1-2.7,2-2.1,3.3c0.6,1.3,2.3,1.7,1.8,2.8c-0.5,1.1-2.8,3.1-2.6,3.9c0.2,0.9,1.9,8.7-2.4,10
				c-4.3,1.3-18.6,1.6-18.6,1.6s-2.9,2-3.8,7.5c-0.9,5.5-6.7,18.2-6.7,18.2s-4.1,7.9-3.5,9.7c0.6,1.8,1.8,2.7,3.3,4
				c0.1,0.1,0.3,0.2,0.4,0.4c31.7-8.4,55.1-37.3,55.1-71.6C152.1,35.3,119,2.1,78,2.1z"/>
		</g>
		<path class="st6" d="M100.6,58.9c4-2.3,7.8-4.8,11.1-7.9c0.6-0.6,0.2-1.4-0.7-1.3c-9.9,1-22.2,13.8-24,15.4
			c4.1-5.3,7.6-11.3,8.6-18c0.1-0.7-0.8-1-1.2-0.5c-5.7,5.8-10.6,13.6-11.6,21.8c0,0.2,0.1,0.4,0.2,0.5c-2.7,2.8-5.3,5.8-7.6,8.9
			c2.4-6,3.1-12.6,2.2-19.1c-0.1-0.5-0.7-0.9-1.2-0.5c-3,2.5-3.6,5.9-3.9,9.6c-0.4,4.3-0.4,8.6,0,12.9c0,0.2,0.1,0.4,0.3,0.5
			c0,0.1-0.1,0.1-0.1,0.2c-0.1,0.1-0.2,0.2-0.2,0.4c-0.1,0.1-0.2,0.2-0.3,0.4c-1.8,2.7-3.5,5.5-5,8.3c0.3-3.4,0.2-6.8-0.3-10.2
			c-0.2-1.3-0.6-7.8-3-7.5c-2.6,0.4-1.6,6.3-1.6,7.9c0.2,4.9,0.9,9.7,2.1,14.4c0.1,0.2,0.2,0.3,0.3,0.4c-1.4,3-2.6,6-3.6,9
			c-0.4-3.1-2-6.5-3.3-9c-0.8-1.4-2.8-6.3-5.1-5.6c-2.5,0.7,0.1,6.1,0.7,7.4c1.5,3.6,3.8,7.4,7,9.7c-1.3,4.3-2.3,8.7-2.8,13.1
			c-0.1,0.4,0.5,0.5,0.6,0.1c0.9-3.8,2-7.6,3.2-11.3c1.2,1.3,6.2,0.2,7.3,0c3.3-0.7,8.6-2.5,10.6-5.4c1.9-2.7-1-3.1-3.1-2.7
			c-4.8,0.9-9.4,3.6-13.8,5.9c0-0.1,0-0.3-0.1-0.4c1.2-3.5,2.6-7,4.2-10.3c6.8,0.9,14.4,0.3,19.5-4.7c0.5-0.5-0.1-1.3-0.7-1.2
			c-5.9,0.7-12.1,1.7-17.8,3.7c1.1-2.3,2.4-4.5,3.7-6.7c0.9-1.4,1.8-2.8,2.8-4.2c7.7,0.8,15.4-1.5,21.5-6.2c0.6-0.5,0.2-1.3-0.5-1.3
			c-6.5-0.1-12.9,1.3-18.6,4.3c2.7-3.6,5.7-6.9,8.8-10.1c7,1.4,14.7-0.6,20.6-4.4c0.7-0.5,0.2-1.4-0.6-1.4c-5.7,0-11.6,0.8-17,2.9
			C90,64.7,98.6,60,100.6,58.9z"/>
	</g>
</g>
</svg>
