<?xml version="1.0" encoding="utf-8"?>
<!-- Generator: Adobe Illustrator 25.4.1, SVG Export Plug-In . SVG Version: 6.00 Build 0)  -->
<svg version="1.0" id="Layer_1" xmlns="http://www.w3.org/2000/svg" xmlns:xlink="http://www.w3.org/1999/xlink" x="0px" y="0px" height="28" width="137"
	 viewBox="0 0 1257.6 351.7" style="enable-background:new 0 0 1257.6 351.7;" xml:space="preserve">
<style type="text/css">
	.st0{fill:#F7F7F7;}
	.st1{fill:#313144;}
	.st2{fill:#00DACC;}
</style>
<g>
	<path class="st2" d="M320.3,176.5c-1.4-66.6-56.9-119.3-123.7-117c-65.2,2.2-116.8,56.8-115.4,122.1c1,48.2,30.5,89.2,72,107.2
		c5.9-7.5,10.8-20.9,13.2-28.4c2.4-6.1,5-12.1,7.7-17.9c12.1,4.2,28.4,0.2,37.4-9.5l0.4-0.4l0,0c-10.8-4.7-25.7-2.3-35.5,5.3
		c3.3-6.9,6.9-13.6,10.6-20.1c11.9,4.8,28.4,1.5,37.7-7.7l0.4-0.4l0,0c-10.4-5.1-25.1-3.5-35.2,3.3c3.7-6.1,7.5-12.1,11.5-17.7
		c12.4,3.8,28.7-0.9,37.2-11l0.3-0.4l0,0c-10.1-3.9-23.3-1.6-32.7,5c0.3-0.4,0.7-0.9,1-1.3c2.4-3.1,4.9-6.2,7.4-9.2
		c14.6-4.1,27.6-19,29.7-34.4l0.1-0.6l-0.1,0c-15.1,3-29.1,17.9-31.9,33.6c-2.4,2.9-4.8,5.8-7.1,8.8c3.8-10.2,3.1-22.7-2.4-31.3l0,0
		l-0.3,0.4c-8.3,10.5-9.6,27.6-3.2,39c-3.8,5.4-7.5,10.9-11,16.7c2.2-11.6-1.5-25.1-9.7-32.7l0,0l-0.2,0.5
		c-5.4,12.1-2.5,28.8,6.4,38.3c-3.5,6.1-6.8,12.4-10,18.9c1.9-12.1-2.4-26.1-11-33.6l0,0l-0.2,0.5c-4.9,12.7-1.1,29.9,8.4,39.1
		c-2.1,4.5-4.1,9-6,13.7c-0.5-0.5-1.1-0.8-1.8-1.1c-2.5-0.7-5.9-2-9.7-4.3c-2.5-1.5-5.2-2.7-7.9-3.6c-10.8-3.5-9.2-8.7-14.8-19.2
		c-0.4-0.7-4.8-5.3-5.8-6.2c-0.2-0.2-3.1-1.9-4.5-4.9c-1.3-2.8-2.1-5.4-2.3-7.9c-0.4-3.4-1.8-5.6-5.1-6.8
		c-15.9-5.5-8.8-26.1-8.2-28.8c0.5-2.3-1.6-7.4-2.3-10.2c-0.1-0.3-0.2-0.7-0.3-1.3c-1.1-5.5,1.4-10.2,3.3-12.1
		c1.9-1.9,8.5-5,9.9-6.8c1.4-1.8,2.4-3.8,3.8-5.5c1.9-2.3,7.5-6.8,15.2-10.9c4.6-2.5,5.4-8.9,7.2-10.9c3-3.4,7.6-3.4,11-6.4
		c1.7-1.5,4.2-2.3,5.8-3.9c7.9-8.1,18.4-11.3,28.8-13.3c7-1.3,14.8,0.7,22.2,2c1.1,0.2,2.1,0.4,3.1,0.7c16.5,0.6,36.3,4,43.5,11
		c4.5,4.4,6.7,9.1,7.7,12.4c1.2,3.7,2.8,7.2,4.8,10.4l4.4,7.2c2.8,4.5,3.7,10,2.5,15.2c-0.7,3-1,6.1-0.2,7.8
		c1.4,2.7,5.6,7.1,8.1,9.6c1.2,1.2,2.6,2.3,4,3.2c3.4,2.1,9.8,6.3,9.8,6.6c0,0.5,0.5,2.5-2.3,5c-2.8,2.5-8.2,6.4-8.2,6.4
		s0.3,1.8,1,3.2c0.8,1.4,2.6,3.6,2,5.5c-0.6,1.9-4.5,3.5-3.4,5.6c1.1,2.2,3.9,2.8,3.1,4.8c-0.8,1.9-4.7,5.3-4.3,6.7
		c0.4,1.4,3.6,14.8-3.8,17.1c-5.5,1.8-20.7,2.7-27.8,3.1c-3.1,0.2-5.8,1.9-7.3,4.6c-1.1,2-2.2,4.8-2.7,8.5
		c-1.4,9.4-10.7,31.1-10.7,31.1s-0.3,0.6-0.7,1.5c-0.8,2-2,5-1.8,6.3c0.1,0.8,1.2,2.4,2.8,4.3c1.3,1.5,3.4,2.1,5.3,1.5
		C287.4,275.7,321.4,229.8,320.3,176.5z"/>
	<g>
		<path class="st1" d="M426.7,118.2H454l30.3,48.8l30.3-48.8h27.4v115.4h-25.2v-75.3l-32.5,49.3h-0.7l-32.1-48.8v74.8h-24.9V118.2z"
			/>
		<path class="st1" d="M632.4,118.2h87v22.6h-61.8v23.4H712v22.6h-54.4V211h62.6v22.6h-87.9V118.2z"/>
		<path class="st1" d="M832.4,141.6h-35.1v-23.4h95.6v23.4h-35.1v92h-25.4V141.6z"/>
		<path class="st1" d="M976.1,118.2h25.4v115.4h-25.4V118.2z"/>
		<path class="st1" d="M1085.1,216.7l15-18c10.6,8.6,21.3,14,34.5,14c10.6,0,16.6-4.1,16.6-10.9v-0.3c0-6.4-4-9.9-23.2-14.7
			c-23.4-5.8-38.2-12.5-38.2-35.3v-0.3c0-20.9,16.6-34.8,40.4-34.8c17,0,31,5.3,42.9,14.7l-13.2,19.1c-10.4-7.1-20.1-11.4-30-11.4
			c-9.9,0-14.8,4.3-14.8,10.1v0.3c0,7.7,4.9,9.9,24.9,15.2c23.4,6.3,36.6,14.5,36.6,34.6v0.3c0,22.9-17.5,35.8-42.4,35.8
			C1116.4,235.2,1098.9,229.3,1085.1,216.7z"/>
	</g>
</g>
</svg>